<svg xmlns="http://www.w3.org/2000/svg" version="1.1" xmlns:xlink="http://www.w3.org/1999/xlink" xmlns:svgjs="http://svgjs.com/svgjs" width="448" height="512"><svg viewBox="0 0 448 512" xmlns="http://www.w3.org/2000/svg">
  <path d="M 7 272 C 7 245.5 28.5 224 55 224 L 87 224 C 113.5 224 135 245.5 135 272 L 135 432 C 135 458.5 113.5 480 87 480 L 55 480 C 28.5 480 7 458.5 7 432 L 7 272 Z" style="fill: rgb(255, 255, 255); stroke-width: 13px; stroke: rgb(0, 0, 0);" transform="matrix(0.9999999999999999, 0, 0, 0.9999999999999999, -2.2737367544323206e-13, -1.1368683772161603e-13)"></path>
  <path d="M 159.107 79.945 C 159.107 53.445 180.607 31.945 207.107 31.945 L 239.107 31.945 C 265.607 31.945 287.107 53.445 287.107 79.945 L 287.107 431.945 C 287.107 458.445 265.607 479.945 239.107 479.945 L 207.107 479.945 C 180.607 479.945 159.107 458.445 159.107 431.945 L 159.107 79.945 Z" style="fill: rgb(69, 135, 255); stroke: rgb(0, 0, 0); stroke-width: 13px;" transform="matrix(0.9999999999999999, 0, 0, 0.9999999999999999, -2.2737367544323206e-13, -1.1368683772161603e-13)"></path>
  <path d="M 361.677 97.197 L 393.677 97.197 C 420.177 97.197 441.677 118.697 441.677 145.197 L 441.677 433.197 C 441.677 459.697 420.177 481.197 393.677 481.197 L 361.677 481.197 C 335.177 481.197 313.677 459.697 313.677 433.197 L 313.677 145.197 C 313.677 118.697 335.177 97.197 361.677 97.197 Z" style="fill: rgb(255, 65, 65); stroke: rgb(0, 0, 0); stroke-width: 13px;" transform="matrix(0.9999999999999999, 0, 0, 0.9999999999999999, -2.2737367544323206e-13, -1.1368683772161603e-13)"></path>
</svg><style>@media (prefers-color-scheme: light) { :root { filter: none; } }
@media (prefers-color-scheme: dark) { :root { filter: none; } }
</style></svg>